# xmcd
#
# Track frame offsets:
#	150
#	15618
#	33697
#	47166
#	56903
#	73612
#	89350
#	107453
#	126756
#	145088
#	164486
#	186412
#	204494
#
# Disc length: 3107 seconds
#
# Revision: 1
# Processed by: cddbd v1.5.2PL0 Copyright (c) Steve Scherf et al.
# Submitted via: audiograbber 1.83.01
#
DISCID=bd0c210d
DTITLE=JonesTM - HC200748
DYEAR=2007
DGENRE=Country
TTITLE0=Sunny Sweeney - Ten Years Pass
TTITLE1=Kevin Fowler - Best Mistake I Ever Made
TTITLE2=Eagles - Please Come Home For Christmas '07
TTITLE3=Tracy Lawrence - All Wrapped Up In Christmas
TTITLE4=Hanson, Jennifer - All I Want For Christmas Is You
TTITLE5=Cupid - Say Yes
TTITLE6=Ne-Yo - Go On Girl [Radio]
TTITLE7=Chris Brown - With You [Main Version]
TTITLE8=Marques Houston - Always And Forever
TTITLE9=Peter White With Rick Braun And Mindi Abair - The Little Drummer Boy [A
TTITLE9=lbum Version]
TTITLE10=Daryl Hall and John Oates - Take Christmas Back
TTITLE11=Maji - The Thought Of You [Album Version]
TTITLE12=Stixbones - My Favorite Things
EXTD=
EXTT0=
EXTT1=
EXTT2=
EXTT3=
EXTT4=
EXTT5=
EXTT6=
EXTT7=
EXTT8=
EXTT9=
EXTT10=
EXTT11=
EXTT12=
PLAYORDER=
